<svg width="24" height="24" viewBox="0 0 24 24" fill="none"
     xmlns="http://www.w3.org/2000/svg">
  <path d="M7 3H9C9.55 3 10 3.45 10 4V20C10 20.55 9.55 21 9 21H7C6.45 21 6 20.55 6 20V4C6 3.45 6.45 3 7 3Z" 
        stroke="black" stroke-width="2" stroke-linecap="round" stroke-linejoin="round"/>
  <path d="M15 3H17C17.55 3 18 3.45 18 4V20C18 20.55 17.55 21 17 21H15C14.45 21 14 20.55 14 20V4C14 3.45 14.45 3 15 3Z" 
        stroke="black" stroke-width="2" stroke-linecap="round" stroke-linejoin="round"/>
</svg>
